<?xml version="1.0" encoding="UTF-8" standalone="no"?>
<!DOCTYPE svg PUBLIC "-//W3C//DTD SVG 1.1//EN" "http://www.w3.org/Graphics/SVG/1.1/DTD/svg11.dtd">
<svg width="100%" height="100%" viewBox="0 0 800 600" version="1.1" xmlns="http://www.w3.org/2000/svg" xmlns:xlink="http://www.w3.org/1999/xlink" xml:space="preserve" xmlns:serif="http://www.serif.com/" style="fill-rule:evenodd;clip-rule:evenodd;stroke-linejoin:round;stroke-miterlimit:2;">
    <g id="Layer1">
        <g transform="matrix(0.805134,0,0,0.805134,-60.6834,264.47)">
            <path d="M350.596,161.821C350.716,161.603 350.946,161.468 351.195,161.468C351.444,161.468 351.674,161.603 351.794,161.821L353.854,165.559C353.991,165.807 354.181,166.022 354.41,166.189C354.639,166.355 354.902,166.469 355.18,166.522L359.372,167.327C359.617,167.374 359.817,167.551 359.894,167.787C359.971,168.024 359.913,168.284 359.742,168.466L356.824,171.581C356.63,171.788 356.485,172.035 356.397,172.304C356.31,172.573 356.282,172.859 356.318,173.14L356.848,177.375C356.879,177.622 356.773,177.867 356.571,178.013C356.369,178.16 356.104,178.185 355.879,178.079L352.014,176.266C351.758,176.146 351.478,176.084 351.195,176.084C350.912,176.084 350.632,176.146 350.375,176.266L346.511,178.079C346.286,178.185 346.021,178.16 345.819,178.013C345.617,177.867 345.511,177.622 345.542,177.375L346.072,173.14C346.108,172.859 346.08,172.573 345.993,172.304C345.905,172.035 345.76,171.788 345.566,171.581L342.648,168.466C342.477,168.284 342.419,168.024 342.496,167.787C342.573,167.551 342.773,167.374 343.018,167.327L347.21,166.522C347.488,166.469 347.751,166.355 347.98,166.189C348.209,166.022 348.399,165.807 348.535,165.559L350.596,161.821Z" style="fill:white;"/>
            <path d="M345.52,162.802L347.118,159.904C347.937,158.418 349.499,157.496 351.195,157.496C352.891,157.496 354.453,158.418 355.272,159.904L356.87,162.802L360.121,163.426C361.787,163.746 363.147,164.947 363.671,166.56C364.195,168.173 363.801,169.944 362.641,171.182L360.378,173.597L360.789,176.882C360.999,178.565 360.278,180.23 358.906,181.227C357.533,182.224 355.727,182.396 354.192,181.675L351.195,180.269L348.198,181.675C346.663,182.396 344.857,182.224 343.484,181.227C342.112,180.23 341.39,178.565 341.601,176.882L342.012,173.597L339.749,171.182C338.589,169.944 338.195,168.173 338.719,166.56C339.243,164.947 340.603,163.746 342.269,163.426L345.52,162.802ZM350.596,161.821C350.716,161.603 350.946,161.468 351.195,161.468C351.444,161.468 351.674,161.603 351.794,161.821L353.854,165.559C353.991,165.807 354.181,166.022 354.41,166.189C354.639,166.355 354.902,166.469 355.18,166.522L359.372,167.327C359.617,167.374 359.817,167.551 359.894,167.787C359.971,168.024 359.913,168.284 359.742,168.466L356.824,171.581C356.63,171.788 356.485,172.035 356.397,172.304C356.31,172.573 356.282,172.859 356.318,173.14L356.848,177.375C356.879,177.622 356.773,177.867 356.571,178.013C356.369,178.16 356.104,178.185 355.879,178.079L352.014,176.266C351.758,176.146 351.478,176.084 351.195,176.084C350.912,176.084 350.632,176.146 350.375,176.266L346.511,178.079C346.286,178.185 346.021,178.16 345.819,178.013C345.617,177.867 345.511,177.622 345.542,177.375L346.072,173.14C346.108,172.859 346.08,172.573 345.993,172.304C345.905,172.035 345.76,171.788 345.566,171.581L342.648,168.466C342.477,168.284 342.419,168.024 342.496,167.787C342.573,167.551 342.773,167.374 343.018,167.327L347.21,166.522C347.488,166.469 347.751,166.355 347.98,166.189C348.209,166.022 348.399,165.807 348.535,165.559L350.596,161.821Z" style="fill:white;fill-opacity:0.09;"/>
        </g>
        <g transform="matrix(0.537295,0,0,0.537295,-44.8411,53.9043)">
            <path d="M350.596,161.821C350.716,161.603 350.946,161.468 351.195,161.468C351.444,161.468 351.674,161.603 351.794,161.821L353.854,165.559C353.991,165.807 354.181,166.022 354.41,166.189C354.639,166.355 354.902,166.469 355.18,166.522L359.372,167.327C359.617,167.374 359.817,167.551 359.894,167.787C359.971,168.024 359.913,168.284 359.742,168.466L356.824,171.581C356.63,171.788 356.485,172.035 356.397,172.304C356.31,172.573 356.282,172.859 356.318,173.14L356.848,177.375C356.879,177.622 356.773,177.867 356.571,178.013C356.369,178.16 356.104,178.185 355.879,178.079L352.014,176.266C351.758,176.146 351.478,176.084 351.195,176.084C350.912,176.084 350.632,176.146 350.375,176.266L346.511,178.079C346.286,178.185 346.021,178.16 345.819,178.013C345.617,177.867 345.511,177.622 345.542,177.375L346.072,173.14C346.108,172.859 346.08,172.573 345.993,172.304C345.905,172.035 345.76,171.788 345.566,171.581L342.648,168.466C342.477,168.284 342.419,168.024 342.496,167.787C342.573,167.551 342.773,167.374 343.018,167.327L347.21,166.522C347.488,166.469 347.751,166.355 347.98,166.189C348.209,166.022 348.399,165.807 348.535,165.559L350.596,161.821Z" style="fill:white;"/>
            <path d="M344.234,161.033L345.384,158.948C346.551,156.83 348.777,155.516 351.195,155.516C353.613,155.516 355.839,156.83 357.006,158.948L358.156,161.033L360.494,161.482C362.869,161.938 364.807,163.649 365.554,165.948C366.301,168.248 365.739,170.771 364.086,172.536L362.458,174.273L362.754,176.636C363.054,179.035 362.025,181.407 360.07,182.829C358.114,184.25 355.54,184.494 353.351,183.468L351.195,182.456L349.039,183.468C346.85,184.494 344.276,184.25 342.32,182.829C340.364,181.407 339.336,179.035 339.636,176.636L339.932,174.273L338.304,172.536C336.651,170.771 336.089,168.248 336.836,165.948C337.583,163.649 339.521,161.938 341.896,161.482L344.234,161.033ZM350.596,161.821C350.716,161.603 350.946,161.468 351.195,161.468C351.444,161.468 351.674,161.603 351.794,161.821L353.854,165.559C353.991,165.807 354.181,166.022 354.41,166.189C354.639,166.355 354.902,166.469 355.18,166.522L359.372,167.327C359.617,167.374 359.817,167.551 359.894,167.787C359.971,168.024 359.913,168.284 359.742,168.466L356.824,171.581C356.63,171.788 356.485,172.035 356.397,172.304C356.31,172.573 356.282,172.859 356.318,173.14L356.848,177.375C356.879,177.622 356.773,177.867 356.571,178.013C356.369,178.16 356.104,178.185 355.879,178.079L352.014,176.266C351.758,176.146 351.478,176.084 351.195,176.084C350.912,176.084 350.632,176.146 350.375,176.266L346.511,178.079C346.286,178.185 346.021,178.16 345.819,178.013C345.617,177.867 345.511,177.622 345.542,177.375L346.072,173.14C346.108,172.859 346.08,172.573 345.993,172.304C345.905,172.035 345.76,171.788 345.566,171.581L342.648,168.466C342.477,168.284 342.419,168.024 342.496,167.787C342.573,167.551 342.773,167.374 343.018,167.327L347.21,166.522C347.488,166.469 347.751,166.355 347.98,166.189C348.209,166.022 348.399,165.807 348.535,165.559L350.596,161.821Z" style="fill:white;fill-opacity:0.09;"/>
        </g>
        <g transform="matrix(0.818679,0,0,0.818679,-217.171,-95.0845)">
            <path d="M350.596,161.821C350.716,161.603 350.946,161.468 351.195,161.468C351.444,161.468 351.674,161.603 351.794,161.821L353.854,165.559C353.991,165.807 354.181,166.022 354.41,166.189C354.639,166.355 354.902,166.469 355.18,166.522L359.372,167.327C359.617,167.374 359.817,167.551 359.894,167.787C359.971,168.024 359.913,168.284 359.742,168.466L356.824,171.581C356.63,171.788 356.485,172.035 356.397,172.304C356.31,172.573 356.282,172.859 356.318,173.14L356.848,177.375C356.879,177.622 356.773,177.867 356.571,178.013C356.369,178.16 356.104,178.185 355.879,178.079L352.014,176.266C351.758,176.146 351.478,176.084 351.195,176.084C350.912,176.084 350.632,176.146 350.375,176.266L346.511,178.079C346.286,178.185 346.021,178.16 345.819,178.013C345.617,177.867 345.511,177.622 345.542,177.375L346.072,173.14C346.108,172.859 346.08,172.573 345.993,172.304C345.905,172.035 345.76,171.788 345.566,171.581L342.648,168.466C342.477,168.284 342.419,168.024 342.496,167.787C342.573,167.551 342.773,167.374 343.018,167.327L347.21,166.522C347.488,166.469 347.751,166.355 347.98,166.189C348.209,166.022 348.399,165.807 348.535,165.559L350.596,161.821Z" style="fill:white;"/>
            <path d="M345.562,162.861L347.175,159.935C347.983,158.471 349.523,157.561 351.195,157.561C352.867,157.561 354.407,158.471 355.215,159.935L356.828,162.861L360.109,163.491C361.751,163.806 363.092,164.99 363.609,166.58C364.125,168.171 363.736,169.917 362.593,171.137L360.309,173.575L360.724,176.89C360.931,178.549 360.22,180.191 358.867,181.173C357.514,182.156 355.734,182.326 354.22,181.616L351.195,180.197L348.17,181.616C346.656,182.326 344.876,182.156 343.523,181.173C342.17,180.191 341.459,178.549 341.666,176.89L342.081,173.575L339.797,171.137C338.654,169.917 338.265,168.171 338.781,166.58C339.298,164.99 340.639,163.806 342.281,163.491L345.562,162.861ZM350.596,161.821C350.716,161.603 350.946,161.468 351.195,161.468C351.444,161.468 351.674,161.603 351.794,161.821L353.854,165.559C353.991,165.807 354.181,166.022 354.41,166.189C354.639,166.355 354.902,166.469 355.18,166.522L359.372,167.327C359.617,167.374 359.817,167.551 359.894,167.787C359.971,168.024 359.913,168.284 359.742,168.466L356.824,171.581C356.63,171.788 356.485,172.035 356.397,172.304C356.31,172.573 356.282,172.859 356.318,173.14L356.848,177.375C356.879,177.622 356.773,177.867 356.571,178.013C356.369,178.16 356.104,178.185 355.879,178.079L352.014,176.266C351.758,176.146 351.478,176.084 351.195,176.084C350.912,176.084 350.632,176.146 350.375,176.266L346.511,178.079C346.286,178.185 346.021,178.16 345.819,178.013C345.617,177.867 345.511,177.622 345.542,177.375L346.072,173.14C346.108,172.859 346.08,172.573 345.993,172.304C345.905,172.035 345.76,171.788 345.566,171.581L342.648,168.466C342.477,168.284 342.419,168.024 342.496,167.787C342.573,167.551 342.773,167.374 343.018,167.327L347.21,166.522C347.488,166.469 347.751,166.355 347.98,166.189C348.209,166.022 348.399,165.807 348.535,165.559L350.596,161.821Z" style="fill:white;fill-opacity:0.09;"/>
        </g>
        <g transform="matrix(0.386013,0,0,0.386013,134.429,30.1839)">
            <path d="M350.596,161.821C350.716,161.603 350.946,161.468 351.195,161.468C351.444,161.468 351.674,161.603 351.794,161.821L353.854,165.559C353.991,165.807 354.181,166.022 354.41,166.189C354.639,166.355 354.902,166.469 355.18,166.522L359.372,167.327C359.617,167.374 359.817,167.551 359.894,167.787C359.971,168.024 359.913,168.284 359.742,168.466L356.824,171.581C356.63,171.788 356.485,172.035 356.397,172.304C356.31,172.573 356.282,172.859 356.318,173.14L356.848,177.375C356.879,177.622 356.773,177.867 356.571,178.013C356.369,178.16 356.104,178.185 355.879,178.079L352.014,176.266C351.758,176.146 351.478,176.084 351.195,176.084C350.912,176.084 350.632,176.146 350.375,176.266L346.511,178.079C346.286,178.185 346.021,178.16 345.819,178.013C345.617,177.867 345.511,177.622 345.542,177.375L346.072,173.14C346.108,172.859 346.08,172.573 345.993,172.304C345.905,172.035 345.76,171.788 345.566,171.581L342.648,168.466C342.477,168.284 342.419,168.024 342.496,167.787C342.573,167.551 342.773,167.374 343.018,167.327L347.21,166.522C347.488,166.469 347.751,166.355 347.98,166.189C348.209,166.022 348.399,165.807 348.535,165.559L350.596,161.821Z" style="fill:white;"/>
            <path d="M342.72,158.948L343.341,157.821C344.918,154.96 347.927,153.183 351.195,153.183C354.463,153.183 357.472,154.96 359.049,157.821L359.67,158.948L360.934,159.191C364.143,159.807 366.763,162.12 367.773,165.227C368.783,168.335 368.022,171.746 365.788,174.13L364.908,175.07L365.068,176.346C365.474,179.589 364.084,182.795 361.441,184.716C358.797,186.636 355.318,186.967 352.36,185.58L351.195,185.033L350.03,185.58C347.072,186.967 343.593,186.636 340.949,184.716C338.306,182.795 336.916,179.589 337.322,176.346L337.482,175.07L336.602,174.13C334.368,171.746 333.607,168.335 334.617,165.227C335.627,162.12 338.247,159.807 341.456,159.191L342.72,158.948ZM350.596,161.821C350.716,161.603 350.946,161.468 351.195,161.468C351.444,161.468 351.674,161.603 351.794,161.821L353.854,165.559C353.991,165.807 354.181,166.022 354.41,166.189C354.639,166.355 354.902,166.469 355.18,166.522L359.372,167.327C359.617,167.374 359.817,167.551 359.894,167.787C359.971,168.024 359.913,168.284 359.742,168.466L356.824,171.581C356.63,171.788 356.485,172.035 356.397,172.304C356.31,172.573 356.282,172.859 356.318,173.14L356.848,177.375C356.879,177.622 356.773,177.867 356.571,178.013C356.369,178.16 356.104,178.185 355.879,178.079L352.014,176.266C351.758,176.146 351.478,176.084 351.195,176.084C350.912,176.084 350.632,176.146 350.375,176.266L346.511,178.079C346.286,178.185 346.021,178.16 345.819,178.013C345.617,177.867 345.511,177.622 345.542,177.375L346.072,173.14C346.108,172.859 346.08,172.573 345.993,172.304C345.905,172.035 345.76,171.788 345.566,171.581L342.648,168.466C342.477,168.284 342.419,168.024 342.496,167.787C342.573,167.551 342.773,167.374 343.018,167.327L347.21,166.522C347.488,166.469 347.751,166.355 347.98,166.189C348.209,166.022 348.399,165.807 348.535,165.559L350.596,161.821Z" style="fill:white;fill-opacity:0.09;"/>
        </g>
        <g transform="matrix(0.537295,0,0,0.537295,-94.5628,128.754)">
            <path d="M350.596,161.821C350.716,161.603 350.946,161.468 351.195,161.468C351.444,161.468 351.674,161.603 351.794,161.821L353.854,165.559C353.991,165.807 354.181,166.022 354.41,166.189C354.639,166.355 354.902,166.469 355.18,166.522L359.372,167.327C359.617,167.374 359.817,167.551 359.894,167.787C359.971,168.024 359.913,168.284 359.742,168.466L356.824,171.581C356.63,171.788 356.485,172.035 356.397,172.304C356.31,172.573 356.282,172.859 356.318,173.14L356.848,177.375C356.879,177.622 356.773,177.867 356.571,178.013C356.369,178.16 356.104,178.185 355.879,178.079L352.014,176.266C351.758,176.146 351.478,176.084 351.195,176.084C350.912,176.084 350.632,176.146 350.375,176.266L346.511,178.079C346.286,178.185 346.021,178.16 345.819,178.013C345.617,177.867 345.511,177.622 345.542,177.375L346.072,173.14C346.108,172.859 346.08,172.573 345.993,172.304C345.905,172.035 345.76,171.788 345.566,171.581L342.648,168.466C342.477,168.284 342.419,168.024 342.496,167.787C342.573,167.551 342.773,167.374 343.018,167.327L347.21,166.522C347.488,166.469 347.751,166.355 347.98,166.189C348.209,166.022 348.399,165.807 348.535,165.559L350.596,161.821Z" style="fill:white;"/>
            <path d="M344.234,161.033L345.384,158.948C346.551,156.83 348.777,155.516 351.195,155.516C353.613,155.516 355.839,156.83 357.006,158.948L358.156,161.033L360.494,161.482C362.869,161.938 364.807,163.649 365.554,165.948C366.301,168.248 365.739,170.771 364.086,172.536L362.458,174.273L362.754,176.636C363.054,179.035 362.025,181.407 360.07,182.829C358.114,184.25 355.54,184.494 353.351,183.468L351.195,182.456L349.039,183.468C346.85,184.494 344.276,184.25 342.32,182.829C340.364,181.407 339.336,179.035 339.636,176.636L339.932,174.273L338.304,172.536C336.651,170.771 336.089,168.248 336.836,165.948C337.583,163.649 339.521,161.938 341.896,161.482L344.234,161.033ZM350.596,161.821C350.716,161.603 350.946,161.468 351.195,161.468C351.444,161.468 351.674,161.603 351.794,161.821L353.854,165.559C353.991,165.807 354.181,166.022 354.41,166.189C354.639,166.355 354.902,166.469 355.18,166.522L359.372,167.327C359.617,167.374 359.817,167.551 359.894,167.787C359.971,168.024 359.913,168.284 359.742,168.466L356.824,171.581C356.63,171.788 356.485,172.035 356.397,172.304C356.31,172.573 356.282,172.859 356.318,173.14L356.848,177.375C356.879,177.622 356.773,177.867 356.571,178.013C356.369,178.16 356.104,178.185 355.879,178.079L352.014,176.266C351.758,176.146 351.478,176.084 351.195,176.084C350.912,176.084 350.632,176.146 350.375,176.266L346.511,178.079C346.286,178.185 346.021,178.16 345.819,178.013C345.617,177.867 345.511,177.622 345.542,177.375L346.072,173.14C346.108,172.859 346.08,172.573 345.993,172.304C345.905,172.035 345.76,171.788 345.566,171.581L342.648,168.466C342.477,168.284 342.419,168.024 342.496,167.787C342.573,167.551 342.773,167.374 343.018,167.327L347.21,166.522C347.488,166.469 347.751,166.355 347.98,166.189C348.209,166.022 348.399,165.807 348.535,165.559L350.596,161.821Z" style="fill:white;fill-opacity:0.09;"/>
        </g>
        <g transform="matrix(0.466949,0,0,0.466949,318.244,-7.34554)">
            <path d="M350.596,161.821C350.716,161.603 350.946,161.468 351.195,161.468C351.444,161.468 351.674,161.603 351.794,161.821L353.854,165.559C353.991,165.807 354.181,166.022 354.41,166.189C354.639,166.355 354.902,166.469 355.18,166.522L359.372,167.327C359.617,167.374 359.817,167.551 359.894,167.787C359.971,168.024 359.913,168.284 359.742,168.466L356.824,171.581C356.63,171.788 356.485,172.035 356.397,172.304C356.31,172.573 356.282,172.859 356.318,173.14L356.848,177.375C356.879,177.622 356.773,177.867 356.571,178.013C356.369,178.16 356.104,178.185 355.879,178.079L352.014,176.266C351.758,176.146 351.478,176.084 351.195,176.084C350.912,176.084 350.632,176.146 350.375,176.266L346.511,178.079C346.286,178.185 346.021,178.16 345.819,178.013C345.617,177.867 345.511,177.622 345.542,177.375L346.072,173.14C346.108,172.859 346.08,172.573 345.993,172.304C345.905,172.035 345.76,171.788 345.566,171.581L342.648,168.466C342.477,168.284 342.419,168.024 342.496,167.787C342.573,167.551 342.773,167.374 343.018,167.327L347.21,166.522C347.488,166.469 347.751,166.355 347.98,166.189C348.209,166.022 348.399,165.807 348.535,165.559L350.596,161.821Z" style="fill:white;"/>
            <path d="M343.652,160.232L344.598,158.515C345.923,156.111 348.451,154.619 351.195,154.619C353.939,154.619 356.467,156.111 357.792,158.515L358.738,160.232L360.663,160.601C363.359,161.119 365.559,163.061 366.407,165.671C367.255,168.281 366.617,171.146 364.74,173.149L363.4,174.579L363.643,176.525C363.984,179.248 362.817,181.941 360.597,183.554C358.376,185.167 355.454,185.445 352.97,184.279L351.195,183.447L349.42,184.279C346.936,185.445 344.014,185.167 341.793,183.554C339.573,181.941 338.406,179.248 338.747,176.525L338.99,174.579L337.65,173.149C335.773,171.146 335.135,168.281 335.983,165.671C336.831,163.061 339.031,161.119 341.727,160.601L343.652,160.232ZM350.596,161.821C350.716,161.603 350.946,161.468 351.195,161.468C351.444,161.468 351.674,161.603 351.794,161.821L353.854,165.559C353.991,165.807 354.181,166.022 354.41,166.189C354.639,166.355 354.902,166.469 355.18,166.522L359.372,167.327C359.617,167.374 359.817,167.551 359.894,167.787C359.971,168.024 359.913,168.284 359.742,168.466L356.824,171.581C356.63,171.788 356.485,172.035 356.397,172.304C356.31,172.573 356.282,172.859 356.318,173.14L356.848,177.375C356.879,177.622 356.773,177.867 356.571,178.013C356.369,178.16 356.104,178.185 355.879,178.079L352.014,176.266C351.758,176.146 351.478,176.084 351.195,176.084C350.912,176.084 350.632,176.146 350.375,176.266L346.511,178.079C346.286,178.185 346.021,178.16 345.819,178.013C345.617,177.867 345.511,177.622 345.542,177.375L346.072,173.14C346.108,172.859 346.08,172.573 345.993,172.304C345.905,172.035 345.76,171.788 345.566,171.581L342.648,168.466C342.477,168.284 342.419,168.024 342.496,167.787C342.573,167.551 342.773,167.374 343.018,167.327L347.21,166.522C347.488,166.469 347.751,166.355 347.98,166.189C348.209,166.022 348.399,165.807 348.535,165.559L350.596,161.821Z" style="fill:white;fill-opacity:0.09;"/>
        </g>
        <g transform="matrix(0.537295,0,0,0.537295,317.439,-58.046)">
            <path d="M350.596,161.821C350.716,161.603 350.946,161.468 351.195,161.468C351.444,161.468 351.674,161.603 351.794,161.821L353.854,165.559C353.991,165.807 354.181,166.022 354.41,166.189C354.639,166.355 354.902,166.469 355.18,166.522L359.372,167.327C359.617,167.374 359.817,167.551 359.894,167.787C359.971,168.024 359.913,168.284 359.742,168.466L356.824,171.581C356.63,171.788 356.485,172.035 356.397,172.304C356.31,172.573 356.282,172.859 356.318,173.14L356.848,177.375C356.879,177.622 356.773,177.867 356.571,178.013C356.369,178.16 356.104,178.185 355.879,178.079L352.014,176.266C351.758,176.146 351.478,176.084 351.195,176.084C350.912,176.084 350.632,176.146 350.375,176.266L346.511,178.079C346.286,178.185 346.021,178.16 345.819,178.013C345.617,177.867 345.511,177.622 345.542,177.375L346.072,173.14C346.108,172.859 346.08,172.573 345.993,172.304C345.905,172.035 345.76,171.788 345.566,171.581L342.648,168.466C342.477,168.284 342.419,168.024 342.496,167.787C342.573,167.551 342.773,167.374 343.018,167.327L347.21,166.522C347.488,166.469 347.751,166.355 347.98,166.189C348.209,166.022 348.399,165.807 348.535,165.559L350.596,161.821Z" style="fill:white;"/>
            <path d="M344.234,161.033L345.384,158.948C346.551,156.83 348.777,155.516 351.195,155.516C353.613,155.516 355.839,156.83 357.006,158.948L358.156,161.033L360.494,161.482C362.869,161.938 364.807,163.649 365.554,165.948C366.301,168.248 365.739,170.771 364.086,172.536L362.458,174.273L362.754,176.636C363.054,179.035 362.025,181.407 360.07,182.829C358.114,184.25 355.54,184.494 353.351,183.468L351.195,182.456L349.039,183.468C346.85,184.494 344.276,184.25 342.32,182.829C340.364,181.407 339.336,179.035 339.636,176.636L339.932,174.273L338.304,172.536C336.651,170.771 336.089,168.248 336.836,165.948C337.583,163.649 339.521,161.938 341.896,161.482L344.234,161.033ZM350.596,161.821C350.716,161.603 350.946,161.468 351.195,161.468C351.444,161.468 351.674,161.603 351.794,161.821L353.854,165.559C353.991,165.807 354.181,166.022 354.41,166.189C354.639,166.355 354.902,166.469 355.18,166.522L359.372,167.327C359.617,167.374 359.817,167.551 359.894,167.787C359.971,168.024 359.913,168.284 359.742,168.466L356.824,171.581C356.63,171.788 356.485,172.035 356.397,172.304C356.31,172.573 356.282,172.859 356.318,173.14L356.848,177.375C356.879,177.622 356.773,177.867 356.571,178.013C356.369,178.16 356.104,178.185 355.879,178.079L352.014,176.266C351.758,176.146 351.478,176.084 351.195,176.084C350.912,176.084 350.632,176.146 350.375,176.266L346.511,178.079C346.286,178.185 346.021,178.16 345.819,178.013C345.617,177.867 345.511,177.622 345.542,177.375L346.072,173.14C346.108,172.859 346.08,172.573 345.993,172.304C345.905,172.035 345.76,171.788 345.566,171.581L342.648,168.466C342.477,168.284 342.419,168.024 342.496,167.787C342.573,167.551 342.773,167.374 343.018,167.327L347.21,166.522C347.488,166.469 347.751,166.355 347.98,166.189C348.209,166.022 348.399,165.807 348.535,165.559L350.596,161.821Z" style="fill:white;fill-opacity:0.09;"/>
        </g>
        <g transform="matrix(0.35903,0,0,0.35903,187.58,201.732)">
            <path d="M350.596,161.821C350.716,161.603 350.946,161.468 351.195,161.468C351.444,161.468 351.674,161.603 351.794,161.821L353.854,165.559C353.991,165.807 354.181,166.022 354.41,166.189C354.639,166.355 354.902,166.469 355.18,166.522L359.372,167.327C359.617,167.374 359.817,167.551 359.894,167.787C359.971,168.024 359.913,168.284 359.742,168.466L356.824,171.581C356.63,171.788 356.485,172.035 356.397,172.304C356.31,172.573 356.282,172.859 356.318,173.14L356.848,177.375C356.879,177.622 356.773,177.867 356.571,178.013C356.369,178.16 356.104,178.185 355.879,178.079L352.014,176.266C351.758,176.146 351.478,176.084 351.195,176.084C350.912,176.084 350.632,176.146 350.375,176.266L346.511,178.079C346.286,178.185 346.021,178.16 345.819,178.013C345.617,177.867 345.511,177.622 345.542,177.375L346.072,173.14C346.108,172.859 346.08,172.573 345.993,172.304C345.905,172.035 345.76,171.788 345.566,171.581L342.648,168.466C342.477,168.284 342.419,168.024 342.496,167.787C342.573,167.551 342.773,167.374 343.018,167.327L347.21,166.522C347.488,166.469 347.751,166.355 347.98,166.189C348.209,166.022 348.399,165.807 348.535,165.559L350.596,161.821Z" style="fill:white;"/>
            <path d="M342.315,158.392L342.796,157.521C344.483,154.461 347.701,152.56 351.195,152.56C354.689,152.56 357.907,154.461 359.594,157.521L360.075,158.392L361.052,158.58C364.483,159.238 367.285,161.712 368.365,165.035C369.445,168.358 368.632,172.006 366.243,174.556L365.563,175.282L365.686,176.269C366.12,179.737 364.634,183.165 361.807,185.219C358.98,187.273 355.259,187.627 352.096,186.143L351.195,185.721L350.294,186.143C347.131,187.627 343.41,187.273 340.583,185.219C337.756,183.165 336.27,179.737 336.704,176.269L336.827,175.282L336.147,174.556C333.758,172.006 332.945,168.358 334.025,165.035C335.105,161.712 337.907,159.238 341.338,158.58L342.315,158.392ZM350.596,161.821C350.716,161.603 350.946,161.468 351.195,161.468C351.444,161.468 351.674,161.603 351.794,161.821L353.854,165.559C353.991,165.807 354.181,166.022 354.41,166.189C354.639,166.355 354.902,166.469 355.18,166.522L359.372,167.327C359.617,167.374 359.817,167.551 359.894,167.787C359.971,168.024 359.913,168.284 359.742,168.466L356.824,171.581C356.63,171.788 356.485,172.035 356.397,172.304C356.31,172.573 356.282,172.859 356.318,173.14L356.848,177.375C356.879,177.622 356.773,177.867 356.571,178.013C356.369,178.16 356.104,178.185 355.879,178.079L352.014,176.266C351.758,176.146 351.478,176.084 351.195,176.084C350.912,176.084 350.632,176.146 350.375,176.266L346.511,178.079C346.286,178.185 346.021,178.16 345.819,178.013C345.617,177.867 345.511,177.622 345.542,177.375L346.072,173.14C346.108,172.859 346.08,172.573 345.993,172.304C345.905,172.035 345.76,171.788 345.566,171.581L342.648,168.466C342.477,168.284 342.419,168.024 342.496,167.787C342.573,167.551 342.773,167.374 343.018,167.327L347.21,166.522C347.488,166.469 347.751,166.355 347.98,166.189C348.209,166.022 348.399,165.807 348.535,165.559L350.596,161.821Z" style="fill:white;fill-opacity:0.09;"/>
        </g>
        <g transform="matrix(0.415141,0,0,0.415141,336.406,135.316)">
            <path d="M350.596,161.821C350.716,161.603 350.946,161.468 351.195,161.468C351.444,161.468 351.674,161.603 351.794,161.821L353.854,165.559C353.991,165.807 354.181,166.022 354.41,166.189C354.639,166.355 354.902,166.469 355.18,166.522L359.372,167.327C359.617,167.374 359.817,167.551 359.894,167.787C359.971,168.024 359.913,168.284 359.742,168.466L356.824,171.581C356.63,171.788 356.485,172.035 356.397,172.304C356.31,172.573 356.282,172.859 356.318,173.14L356.848,177.375C356.879,177.622 356.773,177.867 356.571,178.013C356.369,178.16 356.104,178.185 355.879,178.079L352.014,176.266C351.758,176.146 351.478,176.084 351.195,176.084C350.912,176.084 350.632,176.146 350.375,176.266L346.511,178.079C346.286,178.185 346.021,178.16 345.819,178.013C345.617,177.867 345.511,177.622 345.542,177.375L346.072,173.14C346.108,172.859 346.08,172.573 345.993,172.304C345.905,172.035 345.76,171.788 345.566,171.581L342.648,168.466C342.477,168.284 342.419,168.024 342.496,167.787C342.573,167.551 342.773,167.374 343.018,167.327L347.21,166.522C347.488,166.469 347.751,166.355 347.98,166.189C348.209,166.022 348.399,165.807 348.535,165.559L350.596,161.821Z" style="fill:white;"/>
            <path d="M343.097,159.468L343.85,158.102C345.325,155.426 348.139,153.764 351.195,153.764C354.251,153.764 357.065,155.426 358.54,158.102L359.293,159.468L360.825,159.762C363.826,160.338 366.276,162.501 367.22,165.407C368.164,168.313 367.453,171.503 365.364,173.733L364.298,174.871L364.491,176.419C364.871,179.451 363.571,182.449 361.099,184.245C358.627,186.042 355.373,186.351 352.607,185.053L351.195,184.391L349.783,185.053C347.017,186.351 343.763,186.042 341.291,184.245C338.819,182.449 337.519,179.451 337.899,176.419L338.092,174.871L337.026,173.733C334.937,171.503 334.226,168.313 335.17,165.407C336.114,162.501 338.564,160.338 341.565,159.762L343.097,159.468ZM350.596,161.821C350.716,161.603 350.946,161.468 351.195,161.468C351.444,161.468 351.674,161.603 351.794,161.821L353.854,165.559C353.991,165.807 354.181,166.022 354.41,166.189C354.639,166.355 354.902,166.469 355.18,166.522L359.372,167.327C359.617,167.374 359.817,167.551 359.894,167.787C359.971,168.024 359.913,168.284 359.742,168.466L356.824,171.581C356.63,171.788 356.485,172.035 356.397,172.304C356.31,172.573 356.282,172.859 356.318,173.14L356.848,177.375C356.879,177.622 356.773,177.867 356.571,178.013C356.369,178.16 356.104,178.185 355.879,178.079L352.014,176.266C351.758,176.146 351.478,176.084 351.195,176.084C350.912,176.084 350.632,176.146 350.375,176.266L346.511,178.079C346.286,178.185 346.021,178.16 345.819,178.013C345.617,177.867 345.511,177.622 345.542,177.375L346.072,173.14C346.108,172.859 346.08,172.573 345.993,172.304C345.905,172.035 345.76,171.788 345.566,171.581L342.648,168.466C342.477,168.284 342.419,168.024 342.496,167.787C342.573,167.551 342.773,167.374 343.018,167.327L347.21,166.522C347.488,166.469 347.751,166.355 347.98,166.189C348.209,166.022 348.399,165.807 348.535,165.559L350.596,161.821Z" style="fill:white;fill-opacity:0.09;"/>
        </g>
        <g transform="matrix(0.889025,0,0,0.889025,328.133,-14.9919)">
            <path d="M350.596,161.821C350.716,161.603 350.946,161.468 351.195,161.468C351.444,161.468 351.674,161.603 351.794,161.821L353.854,165.559C353.991,165.807 354.181,166.022 354.41,166.189C354.639,166.355 354.902,166.469 355.18,166.522L359.372,167.327C359.617,167.374 359.817,167.551 359.894,167.787C359.971,168.024 359.913,168.284 359.742,168.466L356.824,171.581C356.63,171.788 356.485,172.035 356.397,172.304C356.31,172.573 356.282,172.859 356.318,173.14L356.848,177.375C356.879,177.622 356.773,177.867 356.571,178.013C356.369,178.16 356.104,178.185 355.879,178.079L352.014,176.266C351.758,176.146 351.478,176.084 351.195,176.084C350.912,176.084 350.632,176.146 350.375,176.266L346.511,178.079C346.286,178.185 346.021,178.16 345.819,178.013C345.617,177.867 345.511,177.622 345.542,177.375L346.072,173.14C346.108,172.859 346.08,172.573 345.993,172.304C345.905,172.035 345.76,171.788 345.566,171.581L342.648,168.466C342.477,168.284 342.419,168.024 342.496,167.787C342.573,167.551 342.773,167.374 343.018,167.327L347.21,166.522C347.488,166.469 347.751,166.355 347.98,166.189C348.209,166.022 348.399,165.807 348.535,165.559L350.596,161.821Z" style="fill:white;"/>
            <path d="M345.763,163.137L347.446,160.085C348.199,158.719 349.635,157.87 351.195,157.87C352.755,157.87 354.191,158.719 354.944,160.085L356.627,163.137L360.05,163.795C361.582,164.089 362.833,165.192 363.315,166.676C363.797,168.159 363.434,169.787 362.367,170.926L359.984,173.47L360.417,176.928C360.611,178.476 359.947,180.007 358.685,180.923C357.424,181.84 355.763,181.998 354.351,181.336L351.195,179.855L348.039,181.336C346.627,181.998 344.966,181.84 343.705,180.923C342.443,180.007 341.779,178.476 341.973,176.928L342.406,173.47L340.023,170.926C338.956,169.787 338.593,168.159 339.075,166.676C339.557,165.192 340.808,164.089 342.34,163.795L345.763,163.137ZM350.596,161.821C350.716,161.603 350.946,161.468 351.195,161.468C351.444,161.468 351.674,161.603 351.794,161.821L353.854,165.559C353.991,165.807 354.181,166.022 354.41,166.189C354.639,166.355 354.902,166.469 355.18,166.522L359.372,167.327C359.617,167.374 359.817,167.551 359.894,167.787C359.971,168.024 359.913,168.284 359.742,168.466L356.824,171.581C356.63,171.788 356.485,172.035 356.397,172.304C356.31,172.573 356.282,172.859 356.318,173.14L356.848,177.375C356.879,177.622 356.773,177.867 356.571,178.013C356.369,178.16 356.104,178.185 355.879,178.079L352.014,176.266C351.758,176.146 351.478,176.084 351.195,176.084C350.912,176.084 350.632,176.146 350.375,176.266L346.511,178.079C346.286,178.185 346.021,178.16 345.819,178.013C345.617,177.867 345.511,177.622 345.542,177.375L346.072,173.14C346.108,172.859 346.08,172.573 345.993,172.304C345.905,172.035 345.76,171.788 345.566,171.581L342.648,168.466C342.477,168.284 342.419,168.024 342.496,167.787C342.573,167.551 342.773,167.374 343.018,167.327L347.21,166.522C347.488,166.469 347.751,166.355 347.98,166.189C348.209,166.022 348.399,165.807 348.535,165.559L350.596,161.821Z" style="fill:white;fill-opacity:0.09;"/>
        </g>
        <g transform="matrix(0.537295,0,0,0.537295,504.919,-43.0875)">
            <path d="M350.596,161.821C350.716,161.603 350.946,161.468 351.195,161.468C351.444,161.468 351.674,161.603 351.794,161.821L353.854,165.559C353.991,165.807 354.181,166.022 354.41,166.189C354.639,166.355 354.902,166.469 355.18,166.522L359.372,167.327C359.617,167.374 359.817,167.551 359.894,167.787C359.971,168.024 359.913,168.284 359.742,168.466L356.824,171.581C356.63,171.788 356.485,172.035 356.397,172.304C356.31,172.573 356.282,172.859 356.318,173.14L356.848,177.375C356.879,177.622 356.773,177.867 356.571,178.013C356.369,178.16 356.104,178.185 355.879,178.079L352.014,176.266C351.758,176.146 351.478,176.084 351.195,176.084C350.912,176.084 350.632,176.146 350.375,176.266L346.511,178.079C346.286,178.185 346.021,178.16 345.819,178.013C345.617,177.867 345.511,177.622 345.542,177.375L346.072,173.14C346.108,172.859 346.08,172.573 345.993,172.304C345.905,172.035 345.76,171.788 345.566,171.581L342.648,168.466C342.477,168.284 342.419,168.024 342.496,167.787C342.573,167.551 342.773,167.374 343.018,167.327L347.21,166.522C347.488,166.469 347.751,166.355 347.98,166.189C348.209,166.022 348.399,165.807 348.535,165.559L350.596,161.821Z" style="fill:white;"/>
            <path d="M344.234,161.033L345.384,158.948C346.551,156.83 348.777,155.516 351.195,155.516C353.613,155.516 355.839,156.83 357.006,158.948L358.156,161.033L360.494,161.482C362.869,161.938 364.807,163.649 365.554,165.948C366.301,168.248 365.739,170.771 364.086,172.536L362.458,174.273L362.754,176.636C363.054,179.035 362.025,181.407 360.07,182.829C358.114,184.25 355.54,184.494 353.351,183.468L351.195,182.456L349.039,183.468C346.85,184.494 344.276,184.25 342.32,182.829C340.364,181.407 339.336,179.035 339.636,176.636L339.932,174.273L338.304,172.536C336.651,170.771 336.089,168.248 336.836,165.948C337.583,163.649 339.521,161.938 341.896,161.482L344.234,161.033ZM350.596,161.821C350.716,161.603 350.946,161.468 351.195,161.468C351.444,161.468 351.674,161.603 351.794,161.821L353.854,165.559C353.991,165.807 354.181,166.022 354.41,166.189C354.639,166.355 354.902,166.469 355.18,166.522L359.372,167.327C359.617,167.374 359.817,167.551 359.894,167.787C359.971,168.024 359.913,168.284 359.742,168.466L356.824,171.581C356.63,171.788 356.485,172.035 356.397,172.304C356.31,172.573 356.282,172.859 356.318,173.14L356.848,177.375C356.879,177.622 356.773,177.867 356.571,178.013C356.369,178.16 356.104,178.185 355.879,178.079L352.014,176.266C351.758,176.146 351.478,176.084 351.195,176.084C350.912,176.084 350.632,176.146 350.375,176.266L346.511,178.079C346.286,178.185 346.021,178.16 345.819,178.013C345.617,177.867 345.511,177.622 345.542,177.375L346.072,173.14C346.108,172.859 346.08,172.573 345.993,172.304C345.905,172.035 345.76,171.788 345.566,171.581L342.648,168.466C342.477,168.284 342.419,168.024 342.496,167.787C342.573,167.551 342.773,167.374 343.018,167.327L347.21,166.522C347.488,166.469 347.751,166.355 347.98,166.189C348.209,166.022 348.399,165.807 348.535,165.559L350.596,161.821Z" style="fill:white;fill-opacity:0.09;"/>
        </g>
        <g transform="matrix(0.537295,0,0,0.537295,500.027,174.567)">
            <path d="M350.596,161.821C350.716,161.603 350.946,161.468 351.195,161.468C351.444,161.468 351.674,161.603 351.794,161.821L353.854,165.559C353.991,165.807 354.181,166.022 354.41,166.189C354.639,166.355 354.902,166.469 355.18,166.522L359.372,167.327C359.617,167.374 359.817,167.551 359.894,167.787C359.971,168.024 359.913,168.284 359.742,168.466L356.824,171.581C356.63,171.788 356.485,172.035 356.397,172.304C356.31,172.573 356.282,172.859 356.318,173.14L356.848,177.375C356.879,177.622 356.773,177.867 356.571,178.013C356.369,178.16 356.104,178.185 355.879,178.079L352.014,176.266C351.758,176.146 351.478,176.084 351.195,176.084C350.912,176.084 350.632,176.146 350.375,176.266L346.511,178.079C346.286,178.185 346.021,178.16 345.819,178.013C345.617,177.867 345.511,177.622 345.542,177.375L346.072,173.14C346.108,172.859 346.08,172.573 345.993,172.304C345.905,172.035 345.76,171.788 345.566,171.581L342.648,168.466C342.477,168.284 342.419,168.024 342.496,167.787C342.573,167.551 342.773,167.374 343.018,167.327L347.21,166.522C347.488,166.469 347.751,166.355 347.98,166.189C348.209,166.022 348.399,165.807 348.535,165.559L350.596,161.821Z" style="fill:white;"/>
            <path d="M344.234,161.033L345.384,158.948C346.551,156.83 348.777,155.516 351.195,155.516C353.613,155.516 355.839,156.83 357.006,158.948L358.156,161.033L360.494,161.482C362.869,161.938 364.807,163.649 365.554,165.948C366.301,168.248 365.739,170.771 364.086,172.536L362.458,174.273L362.754,176.636C363.054,179.035 362.025,181.407 360.07,182.829C358.114,184.25 355.54,184.494 353.351,183.468L351.195,182.456L349.039,183.468C346.85,184.494 344.276,184.25 342.32,182.829C340.364,181.407 339.336,179.035 339.636,176.636L339.932,174.273L338.304,172.536C336.651,170.771 336.089,168.248 336.836,165.948C337.583,163.649 339.521,161.938 341.896,161.482L344.234,161.033ZM350.596,161.821C350.716,161.603 350.946,161.468 351.195,161.468C351.444,161.468 351.674,161.603 351.794,161.821L353.854,165.559C353.991,165.807 354.181,166.022 354.41,166.189C354.639,166.355 354.902,166.469 355.18,166.522L359.372,167.327C359.617,167.374 359.817,167.551 359.894,167.787C359.971,168.024 359.913,168.284 359.742,168.466L356.824,171.581C356.63,171.788 356.485,172.035 356.397,172.304C356.31,172.573 356.282,172.859 356.318,173.14L356.848,177.375C356.879,177.622 356.773,177.867 356.571,178.013C356.369,178.16 356.104,178.185 355.879,178.079L352.014,176.266C351.758,176.146 351.478,176.084 351.195,176.084C350.912,176.084 350.632,176.146 350.375,176.266L346.511,178.079C346.286,178.185 346.021,178.16 345.819,178.013C345.617,177.867 345.511,177.622 345.542,177.375L346.072,173.14C346.108,172.859 346.08,172.573 345.993,172.304C345.905,172.035 345.76,171.788 345.566,171.581L342.648,168.466C342.477,168.284 342.419,168.024 342.496,167.787C342.573,167.551 342.773,167.374 343.018,167.327L347.21,166.522C347.488,166.469 347.751,166.355 347.98,166.189C348.209,166.022 348.399,165.807 348.535,165.559L350.596,161.821Z" style="fill:white;fill-opacity:0.09;"/>
        </g>
        <g transform="matrix(0.770245,0,0,0.770245,287.485,201.379)">
            <path d="M350.596,161.821C350.716,161.603 350.946,161.468 351.195,161.468C351.444,161.468 351.674,161.603 351.794,161.821L353.854,165.559C353.991,165.807 354.181,166.022 354.41,166.189C354.639,166.355 354.902,166.469 355.18,166.522L359.372,167.327C359.617,167.374 359.817,167.551 359.894,167.787C359.971,168.024 359.913,168.284 359.742,168.466L356.824,171.581C356.63,171.788 356.485,172.035 356.397,172.304C356.31,172.573 356.282,172.859 356.318,173.14L356.848,177.375C356.879,177.622 356.773,177.867 356.571,178.013C356.369,178.16 356.104,178.185 355.879,178.079L352.014,176.266C351.758,176.146 351.478,176.084 351.195,176.084C350.912,176.084 350.632,176.146 350.375,176.266L346.511,178.079C346.286,178.185 346.021,178.16 345.819,178.013C345.617,177.867 345.511,177.622 345.542,177.375L346.072,173.14C346.108,172.859 346.08,172.573 345.993,172.304C345.905,172.035 345.76,171.788 345.566,171.581L342.648,168.466C342.477,168.284 342.419,168.024 342.496,167.787C342.573,167.551 342.773,167.374 343.018,167.327L347.21,166.522C347.488,166.469 347.751,166.355 347.98,166.189C348.209,166.022 348.399,165.807 348.535,165.559L350.596,161.821Z" style="fill:white;"/>
            <path d="M345.403,162.642L346.96,159.817C347.811,158.274 349.433,157.316 351.195,157.316C352.957,157.316 354.579,158.274 355.43,159.817L356.987,162.642L360.155,163.25C361.885,163.582 363.298,164.829 363.842,166.504C364.387,168.18 363.977,170.019 362.772,171.305L360.567,173.659L360.967,176.86C361.186,178.608 360.437,180.337 359.011,181.372C357.586,182.408 355.71,182.586 354.115,181.838L351.195,180.468L348.275,181.838C346.68,182.586 344.804,182.408 343.379,181.372C341.953,180.337 341.204,178.608 341.423,176.86L341.823,173.659L339.618,171.305C338.413,170.019 338.003,168.18 338.548,166.504C339.092,164.829 340.505,163.582 342.235,163.25L345.403,162.642ZM350.596,161.821C350.716,161.603 350.946,161.468 351.195,161.468C351.444,161.468 351.674,161.603 351.794,161.821L353.854,165.559C353.991,165.807 354.181,166.022 354.41,166.189C354.639,166.355 354.902,166.469 355.18,166.522L359.372,167.327C359.617,167.374 359.817,167.551 359.894,167.787C359.971,168.024 359.913,168.284 359.742,168.466L356.824,171.581C356.63,171.788 356.485,172.035 356.397,172.304C356.31,172.573 356.282,172.859 356.318,173.14L356.848,177.375C356.879,177.622 356.773,177.867 356.571,178.013C356.369,178.16 356.104,178.185 355.879,178.079L352.014,176.266C351.758,176.146 351.478,176.084 351.195,176.084C350.912,176.084 350.632,176.146 350.375,176.266L346.511,178.079C346.286,178.185 346.021,178.16 345.819,178.013C345.617,177.867 345.511,177.622 345.542,177.375L346.072,173.14C346.108,172.859 346.08,172.573 345.993,172.304C345.905,172.035 345.76,171.788 345.566,171.581L342.648,168.466C342.477,168.284 342.419,168.024 342.496,167.787C342.573,167.551 342.773,167.374 343.018,167.327L347.21,166.522C347.488,166.469 347.751,166.355 347.98,166.189C348.209,166.022 348.399,165.807 348.535,165.559L350.596,161.821Z" style="fill:white;fill-opacity:0.09;"/>
        </g>
        <g transform="matrix(0.326257,0,0,0.326257,535.156,403.777)">
            <path d="M350.596,161.821C350.716,161.603 350.946,161.468 351.195,161.468C351.444,161.468 351.674,161.603 351.794,161.821L353.854,165.559C353.991,165.807 354.181,166.022 354.41,166.189C354.639,166.355 354.902,166.469 355.18,166.522L359.372,167.327C359.617,167.374 359.817,167.551 359.894,167.787C359.971,168.024 359.913,168.284 359.742,168.466L356.824,171.581C356.63,171.788 356.485,172.035 356.397,172.304C356.31,172.573 356.282,172.859 356.318,173.14L356.848,177.375C356.879,177.622 356.773,177.867 356.571,178.013C356.369,178.16 356.104,178.185 355.879,178.079L352.014,176.266C351.758,176.146 351.478,176.084 351.195,176.084C350.912,176.084 350.632,176.146 350.375,176.266L346.511,178.079C346.286,178.185 346.021,178.16 345.819,178.013C345.617,177.867 345.511,177.622 345.542,177.375L346.072,173.14C346.108,172.859 346.08,172.573 345.993,172.304C345.905,172.035 345.76,171.788 345.566,171.581L342.648,168.466C342.477,168.284 342.419,168.024 342.496,167.787C342.573,167.551 342.773,167.374 343.018,167.327L347.21,166.522C347.488,166.469 347.751,166.355 347.98,166.189C348.209,166.022 348.399,165.807 348.535,165.559L350.596,161.821Z" style="fill:white;"/>
            <path d="M341.734,157.592L342.012,157.089C343.856,153.743 347.375,151.665 351.195,151.665C355.015,151.665 358.533,153.743 360.378,157.089L360.656,157.592L361.22,157.701C364.972,158.421 368.035,161.125 369.216,164.758C370.396,168.392 369.508,172.38 366.896,175.168L366.502,175.587L366.574,176.158C367.048,179.949 365.423,183.698 362.333,185.943C359.242,188.189 355.174,188.576 351.716,186.953L351.195,186.709L350.674,186.953C347.216,188.576 343.148,188.189 340.057,185.943C336.967,183.698 335.342,179.949 335.816,176.158L335.887,175.587L335.494,175.168C332.882,172.38 331.993,168.392 333.174,164.758C334.355,161.125 337.418,158.421 341.17,157.701L341.734,157.592ZM350.596,161.821C350.716,161.603 350.946,161.468 351.195,161.468C351.444,161.468 351.674,161.603 351.794,161.821L353.854,165.559C353.991,165.807 354.181,166.022 354.41,166.189C354.639,166.355 354.902,166.469 355.18,166.522L359.372,167.327C359.617,167.374 359.817,167.551 359.894,167.787C359.971,168.024 359.913,168.284 359.742,168.466L356.824,171.581C356.63,171.788 356.485,172.035 356.397,172.304C356.31,172.573 356.282,172.859 356.318,173.14L356.848,177.375C356.879,177.622 356.773,177.867 356.571,178.013C356.369,178.16 356.104,178.185 355.879,178.079L352.014,176.266C351.758,176.146 351.478,176.084 351.195,176.084C350.912,176.084 350.632,176.146 350.375,176.266L346.511,178.079C346.286,178.185 346.021,178.16 345.819,178.013C345.617,177.867 345.511,177.622 345.542,177.375L346.072,173.14C346.108,172.859 346.08,172.573 345.993,172.304C345.905,172.035 345.76,171.788 345.566,171.581L342.648,168.466C342.477,168.284 342.419,168.024 342.496,167.787C342.573,167.551 342.773,167.374 343.018,167.327L347.21,166.522C347.488,166.469 347.751,166.355 347.98,166.189C348.209,166.022 348.399,165.807 348.535,165.559L350.596,161.821Z" style="fill:white;fill-opacity:0.09;"/>
        </g>
        <g transform="matrix(0.284615,0,0,0.284615,359.31,389.94)">
            <path d="M350.596,161.821C350.716,161.603 350.946,161.468 351.195,161.468C351.444,161.468 351.674,161.603 351.794,161.821L353.854,165.559C353.991,165.807 354.181,166.022 354.41,166.189C354.639,166.355 354.902,166.469 355.18,166.522L359.372,167.327C359.617,167.374 359.817,167.551 359.894,167.787C359.971,168.024 359.913,168.284 359.742,168.466L356.824,171.581C356.63,171.788 356.485,172.035 356.397,172.304C356.31,172.573 356.282,172.859 356.318,173.14L356.848,177.375C356.879,177.622 356.773,177.867 356.571,178.013C356.369,178.16 356.104,178.185 355.879,178.079L352.014,176.266C351.758,176.146 351.478,176.084 351.195,176.084C350.912,176.084 350.632,176.146 350.375,176.266L346.511,178.079C346.286,178.185 346.021,178.16 345.819,178.013C345.617,177.867 345.511,177.622 345.542,177.375L346.072,173.14C346.108,172.859 346.08,172.573 345.993,172.304C345.905,172.035 345.76,171.788 345.566,171.581L342.648,168.466C342.477,168.284 342.419,168.024 342.496,167.787C342.573,167.551 342.773,167.374 343.018,167.327L347.21,166.522C347.488,166.469 347.751,166.355 347.98,166.189C348.209,166.022 348.399,165.807 348.535,165.559L350.596,161.821Z" style="fill:white;"/>
            <path d="M340.805,156.314C342.912,152.558 346.884,150.231 351.195,150.231C355.506,150.231 359.478,152.558 361.585,156.314C365.807,157.157 369.248,160.215 370.58,164.315C371.912,168.415 370.926,172.912 368.006,176.076C368.509,180.352 366.663,184.57 363.176,187.104C359.688,189.637 355.107,190.089 351.195,188.29C347.283,190.089 342.702,189.637 339.214,187.104C335.727,184.57 333.881,180.352 334.384,176.076C331.464,172.912 330.478,168.415 331.81,164.315C333.142,160.215 336.583,157.157 340.805,156.314ZM350.596,161.821C350.716,161.603 350.946,161.468 351.195,161.468C351.444,161.468 351.674,161.603 351.794,161.821L353.854,165.559C353.991,165.807 354.181,166.022 354.41,166.189C354.639,166.355 354.902,166.469 355.18,166.522L359.372,167.327C359.617,167.374 359.817,167.551 359.894,167.787C359.971,168.024 359.913,168.284 359.742,168.466L356.824,171.581C356.63,171.788 356.485,172.035 356.397,172.304C356.31,172.573 356.282,172.859 356.318,173.14L356.848,177.375C356.879,177.622 356.773,177.867 356.571,178.013C356.369,178.16 356.104,178.185 355.879,178.079L352.014,176.266C351.758,176.146 351.478,176.084 351.195,176.084C350.912,176.084 350.632,176.146 350.375,176.266L346.511,178.079C346.286,178.185 346.021,178.16 345.819,178.013C345.617,177.867 345.511,177.622 345.542,177.375L346.072,173.14C346.108,172.859 346.08,172.573 345.993,172.304C345.905,172.035 345.76,171.788 345.566,171.581L342.648,168.466C342.477,168.284 342.419,168.024 342.496,167.787C342.573,167.551 342.773,167.374 343.018,167.327L347.21,166.522C347.488,166.469 347.751,166.355 347.98,166.189C348.209,166.022 348.399,165.807 348.535,165.559L350.596,161.821Z" style="fill:white;fill-opacity:0.09;"/>
        </g>
        <g transform="matrix(0.537295,0,0,0.537295,584.762,277.603)">
            <path d="M350.596,161.821C350.716,161.603 350.946,161.468 351.195,161.468C351.444,161.468 351.674,161.603 351.794,161.821L353.854,165.559C353.991,165.807 354.181,166.022 354.41,166.189C354.639,166.355 354.902,166.469 355.18,166.522L359.372,167.327C359.617,167.374 359.817,167.551 359.894,167.787C359.971,168.024 359.913,168.284 359.742,168.466L356.824,171.581C356.63,171.788 356.485,172.035 356.397,172.304C356.31,172.573 356.282,172.859 356.318,173.14L356.848,177.375C356.879,177.622 356.773,177.867 356.571,178.013C356.369,178.16 356.104,178.185 355.879,178.079L352.014,176.266C351.758,176.146 351.478,176.084 351.195,176.084C350.912,176.084 350.632,176.146 350.375,176.266L346.511,178.079C346.286,178.185 346.021,178.16 345.819,178.013C345.617,177.867 345.511,177.622 345.542,177.375L346.072,173.14C346.108,172.859 346.08,172.573 345.993,172.304C345.905,172.035 345.76,171.788 345.566,171.581L342.648,168.466C342.477,168.284 342.419,168.024 342.496,167.787C342.573,167.551 342.773,167.374 343.018,167.327L347.21,166.522C347.488,166.469 347.751,166.355 347.98,166.189C348.209,166.022 348.399,165.807 348.535,165.559L350.596,161.821Z" style="fill:white;"/>
            <path d="M344.234,161.033L345.384,158.948C346.551,156.83 348.777,155.516 351.195,155.516C353.613,155.516 355.839,156.83 357.006,158.948L358.156,161.033L360.494,161.482C362.869,161.938 364.807,163.649 365.554,165.948C366.301,168.248 365.739,170.771 364.086,172.536L362.458,174.273L362.754,176.636C363.054,179.035 362.025,181.407 360.07,182.829C358.114,184.25 355.54,184.494 353.351,183.468L351.195,182.456L349.039,183.468C346.85,184.494 344.276,184.25 342.32,182.829C340.364,181.407 339.336,179.035 339.636,176.636L339.932,174.273L338.304,172.536C336.651,170.771 336.089,168.248 336.836,165.948C337.583,163.649 339.521,161.938 341.896,161.482L344.234,161.033ZM350.596,161.821C350.716,161.603 350.946,161.468 351.195,161.468C351.444,161.468 351.674,161.603 351.794,161.821L353.854,165.559C353.991,165.807 354.181,166.022 354.41,166.189C354.639,166.355 354.902,166.469 355.18,166.522L359.372,167.327C359.617,167.374 359.817,167.551 359.894,167.787C359.971,168.024 359.913,168.284 359.742,168.466L356.824,171.581C356.63,171.788 356.485,172.035 356.397,172.304C356.31,172.573 356.282,172.859 356.318,173.14L356.848,177.375C356.879,177.622 356.773,177.867 356.571,178.013C356.369,178.16 356.104,178.185 355.879,178.079L352.014,176.266C351.758,176.146 351.478,176.084 351.195,176.084C350.912,176.084 350.632,176.146 350.375,176.266L346.511,178.079C346.286,178.185 346.021,178.16 345.819,178.013C345.617,177.867 345.511,177.622 345.542,177.375L346.072,173.14C346.108,172.859 346.08,172.573 345.993,172.304C345.905,172.035 345.76,171.788 345.566,171.581L342.648,168.466C342.477,168.284 342.419,168.024 342.496,167.787C342.573,167.551 342.773,167.374 343.018,167.327L347.21,166.522C347.488,166.469 347.751,166.355 347.98,166.189C348.209,166.022 348.399,165.807 348.535,165.559L350.596,161.821Z" style="fill:white;fill-opacity:0.09;"/>
        </g>
        <g transform="matrix(0.537295,0,0,0.537295,567.744,433.589)">
            <path d="M350.596,161.821C350.716,161.603 350.946,161.468 351.195,161.468C351.444,161.468 351.674,161.603 351.794,161.821L353.854,165.559C353.991,165.807 354.181,166.022 354.41,166.189C354.639,166.355 354.902,166.469 355.18,166.522L359.372,167.327C359.617,167.374 359.817,167.551 359.894,167.787C359.971,168.024 359.913,168.284 359.742,168.466L356.824,171.581C356.63,171.788 356.485,172.035 356.397,172.304C356.31,172.573 356.282,172.859 356.318,173.14L356.848,177.375C356.879,177.622 356.773,177.867 356.571,178.013C356.369,178.16 356.104,178.185 355.879,178.079L352.014,176.266C351.758,176.146 351.478,176.084 351.195,176.084C350.912,176.084 350.632,176.146 350.375,176.266L346.511,178.079C346.286,178.185 346.021,178.16 345.819,178.013C345.617,177.867 345.511,177.622 345.542,177.375L346.072,173.14C346.108,172.859 346.08,172.573 345.993,172.304C345.905,172.035 345.76,171.788 345.566,171.581L342.648,168.466C342.477,168.284 342.419,168.024 342.496,167.787C342.573,167.551 342.773,167.374 343.018,167.327L347.21,166.522C347.488,166.469 347.751,166.355 347.98,166.189C348.209,166.022 348.399,165.807 348.535,165.559L350.596,161.821Z" style="fill:white;"/>
            <path d="M344.234,161.033L345.384,158.948C346.551,156.83 348.777,155.516 351.195,155.516C353.613,155.516 355.839,156.83 357.006,158.948L358.156,161.033L360.494,161.482C362.869,161.938 364.807,163.649 365.554,165.948C366.301,168.248 365.739,170.771 364.086,172.536L362.458,174.273L362.754,176.636C363.054,179.035 362.025,181.407 360.07,182.829C358.114,184.25 355.54,184.494 353.351,183.468L351.195,182.456L349.039,183.468C346.85,184.494 344.276,184.25 342.32,182.829C340.364,181.407 339.336,179.035 339.636,176.636L339.932,174.273L338.304,172.536C336.651,170.771 336.089,168.248 336.836,165.948C337.583,163.649 339.521,161.938 341.896,161.482L344.234,161.033ZM350.596,161.821C350.716,161.603 350.946,161.468 351.195,161.468C351.444,161.468 351.674,161.603 351.794,161.821L353.854,165.559C353.991,165.807 354.181,166.022 354.41,166.189C354.639,166.355 354.902,166.469 355.18,166.522L359.372,167.327C359.617,167.374 359.817,167.551 359.894,167.787C359.971,168.024 359.913,168.284 359.742,168.466L356.824,171.581C356.63,171.788 356.485,172.035 356.397,172.304C356.31,172.573 356.282,172.859 356.318,173.14L356.848,177.375C356.879,177.622 356.773,177.867 356.571,178.013C356.369,178.16 356.104,178.185 355.879,178.079L352.014,176.266C351.758,176.146 351.478,176.084 351.195,176.084C350.912,176.084 350.632,176.146 350.375,176.266L346.511,178.079C346.286,178.185 346.021,178.16 345.819,178.013C345.617,177.867 345.511,177.622 345.542,177.375L346.072,173.14C346.108,172.859 346.08,172.573 345.993,172.304C345.905,172.035 345.76,171.788 345.566,171.581L342.648,168.466C342.477,168.284 342.419,168.024 342.496,167.787C342.573,167.551 342.773,167.374 343.018,167.327L347.21,166.522C347.488,166.469 347.751,166.355 347.98,166.189C348.209,166.022 348.399,165.807 348.535,165.559L350.596,161.821Z" style="fill:white;fill-opacity:0.09;"/>
        </g>
        <g transform="matrix(0.537295,0,0,0.537295,348.804,460.449)">
            <path d="M350.596,161.821C350.716,161.603 350.946,161.468 351.195,161.468C351.444,161.468 351.674,161.603 351.794,161.821L353.854,165.559C353.991,165.807 354.181,166.022 354.41,166.189C354.639,166.355 354.902,166.469 355.18,166.522L359.372,167.327C359.617,167.374 359.817,167.551 359.894,167.787C359.971,168.024 359.913,168.284 359.742,168.466L356.824,171.581C356.63,171.788 356.485,172.035 356.397,172.304C356.31,172.573 356.282,172.859 356.318,173.14L356.848,177.375C356.879,177.622 356.773,177.867 356.571,178.013C356.369,178.16 356.104,178.185 355.879,178.079L352.014,176.266C351.758,176.146 351.478,176.084 351.195,176.084C350.912,176.084 350.632,176.146 350.375,176.266L346.511,178.079C346.286,178.185 346.021,178.16 345.819,178.013C345.617,177.867 345.511,177.622 345.542,177.375L346.072,173.14C346.108,172.859 346.08,172.573 345.993,172.304C345.905,172.035 345.76,171.788 345.566,171.581L342.648,168.466C342.477,168.284 342.419,168.024 342.496,167.787C342.573,167.551 342.773,167.374 343.018,167.327L347.21,166.522C347.488,166.469 347.751,166.355 347.98,166.189C348.209,166.022 348.399,165.807 348.535,165.559L350.596,161.821Z" style="fill:white;"/>
            <path d="M344.234,161.033L345.384,158.948C346.551,156.83 348.777,155.516 351.195,155.516C353.613,155.516 355.839,156.83 357.006,158.948L358.156,161.033L360.494,161.482C362.869,161.938 364.807,163.649 365.554,165.948C366.301,168.248 365.739,170.771 364.086,172.536L362.458,174.273L362.754,176.636C363.054,179.035 362.025,181.407 360.07,182.829C358.114,184.25 355.54,184.494 353.351,183.468L351.195,182.456L349.039,183.468C346.85,184.494 344.276,184.25 342.32,182.829C340.364,181.407 339.336,179.035 339.636,176.636L339.932,174.273L338.304,172.536C336.651,170.771 336.089,168.248 336.836,165.948C337.583,163.649 339.521,161.938 341.896,161.482L344.234,161.033ZM350.596,161.821C350.716,161.603 350.946,161.468 351.195,161.468C351.444,161.468 351.674,161.603 351.794,161.821L353.854,165.559C353.991,165.807 354.181,166.022 354.41,166.189C354.639,166.355 354.902,166.469 355.18,166.522L359.372,167.327C359.617,167.374 359.817,167.551 359.894,167.787C359.971,168.024 359.913,168.284 359.742,168.466L356.824,171.581C356.63,171.788 356.485,172.035 356.397,172.304C356.31,172.573 356.282,172.859 356.318,173.14L356.848,177.375C356.879,177.622 356.773,177.867 356.571,178.013C356.369,178.16 356.104,178.185 355.879,178.079L352.014,176.266C351.758,176.146 351.478,176.084 351.195,176.084C350.912,176.084 350.632,176.146 350.375,176.266L346.511,178.079C346.286,178.185 346.021,178.16 345.819,178.013C345.617,177.867 345.511,177.622 345.542,177.375L346.072,173.14C346.108,172.859 346.08,172.573 345.993,172.304C345.905,172.035 345.76,171.788 345.566,171.581L342.648,168.466C342.477,168.284 342.419,168.024 342.496,167.787C342.573,167.551 342.773,167.374 343.018,167.327L347.21,166.522C347.488,166.469 347.751,166.355 347.98,166.189C348.209,166.022 348.399,165.807 348.535,165.559L350.596,161.821Z" style="fill:white;fill-opacity:0.09;"/>
        </g>
        <g transform="matrix(0.742337,0,0,0.742337,115.79,417.553)">
            <path d="M350.596,161.821C350.716,161.603 350.946,161.468 351.195,161.468C351.444,161.468 351.674,161.603 351.794,161.821L353.854,165.559C353.991,165.807 354.181,166.022 354.41,166.189C354.639,166.355 354.902,166.469 355.18,166.522L359.372,167.327C359.617,167.374 359.817,167.551 359.894,167.787C359.971,168.024 359.913,168.284 359.742,168.466L356.824,171.581C356.63,171.788 356.485,172.035 356.397,172.304C356.31,172.573 356.282,172.859 356.318,173.14L356.848,177.375C356.879,177.622 356.773,177.867 356.571,178.013C356.369,178.16 356.104,178.185 355.879,178.079L352.014,176.266C351.758,176.146 351.478,176.084 351.195,176.084C350.912,176.084 350.632,176.146 350.375,176.266L346.511,178.079C346.286,178.185 346.021,178.16 345.819,178.013C345.617,177.867 345.511,177.622 345.542,177.375L346.072,173.14C346.108,172.859 346.08,172.573 345.993,172.304C345.905,172.035 345.76,171.788 345.566,171.581L342.648,168.466C342.477,168.284 342.419,168.024 342.496,167.787C342.573,167.551 342.773,167.374 343.018,167.327L347.21,166.522C347.488,166.469 347.751,166.355 347.98,166.189C348.209,166.022 348.399,165.807 348.535,165.559L350.596,161.821Z" style="fill:white;"/>
            <path d="M345.301,162.502L346.823,159.741C347.701,158.149 349.376,157.16 351.195,157.16C353.014,157.16 354.688,158.149 355.567,159.741L357.088,162.502L360.184,163.096C361.97,163.439 363.429,164.726 363.991,166.456C364.553,168.186 364.13,170.084 362.886,171.412L360.731,173.712L361.122,176.84C361.348,178.645 360.575,180.429 359.103,181.498C357.632,182.568 355.695,182.752 354.049,181.979L351.195,180.64L348.341,181.979C346.694,182.752 344.758,182.568 343.287,181.498C341.815,180.429 341.042,178.645 341.268,176.84L341.659,173.712L339.504,171.412C338.26,170.084 337.837,168.186 338.399,166.456C338.961,164.726 340.42,163.439 342.206,163.096L345.301,162.502ZM350.596,161.821C350.716,161.603 350.946,161.468 351.195,161.468C351.444,161.468 351.674,161.603 351.794,161.821L353.854,165.559C353.991,165.807 354.181,166.022 354.41,166.189C354.639,166.355 354.902,166.469 355.18,166.522L359.372,167.327C359.617,167.374 359.817,167.551 359.894,167.787C359.971,168.024 359.913,168.284 359.742,168.466L356.824,171.581C356.63,171.788 356.485,172.035 356.397,172.304C356.31,172.573 356.282,172.859 356.318,173.14L356.848,177.375C356.879,177.622 356.773,177.867 356.571,178.013C356.369,178.16 356.104,178.185 355.879,178.079L352.014,176.266C351.758,176.146 351.478,176.084 351.195,176.084C350.912,176.084 350.632,176.146 350.375,176.266L346.511,178.079C346.286,178.185 346.021,178.16 345.819,178.013C345.617,177.867 345.511,177.622 345.542,177.375L346.072,173.14C346.108,172.859 346.08,172.573 345.993,172.304C345.905,172.035 345.76,171.788 345.566,171.581L342.648,168.466C342.477,168.284 342.419,168.024 342.496,167.787C342.573,167.551 342.773,167.374 343.018,167.327L347.21,166.522C347.488,166.469 347.751,166.355 347.98,166.189C348.209,166.022 348.399,165.807 348.535,165.559L350.596,161.821Z" style="fill:white;fill-opacity:0.09;"/>
        </g>
        <g transform="matrix(0.537295,0,0,0.537295,-151.259,464.503)">
            <path d="M350.596,161.821C350.716,161.603 350.946,161.468 351.195,161.468C351.444,161.468 351.674,161.603 351.794,161.821L353.854,165.559C353.991,165.807 354.181,166.022 354.41,166.189C354.639,166.355 354.902,166.469 355.18,166.522L359.372,167.327C359.617,167.374 359.817,167.551 359.894,167.787C359.971,168.024 359.913,168.284 359.742,168.466L356.824,171.581C356.63,171.788 356.485,172.035 356.397,172.304C356.31,172.573 356.282,172.859 356.318,173.14L356.848,177.375C356.879,177.622 356.773,177.867 356.571,178.013C356.369,178.16 356.104,178.185 355.879,178.079L352.014,176.266C351.758,176.146 351.478,176.084 351.195,176.084C350.912,176.084 350.632,176.146 350.375,176.266L346.511,178.079C346.286,178.185 346.021,178.16 345.819,178.013C345.617,177.867 345.511,177.622 345.542,177.375L346.072,173.14C346.108,172.859 346.08,172.573 345.993,172.304C345.905,172.035 345.76,171.788 345.566,171.581L342.648,168.466C342.477,168.284 342.419,168.024 342.496,167.787C342.573,167.551 342.773,167.374 343.018,167.327L347.21,166.522C347.488,166.469 347.751,166.355 347.98,166.189C348.209,166.022 348.399,165.807 348.535,165.559L350.596,161.821Z" style="fill:white;"/>
            <path d="M344.234,161.033L345.384,158.948C346.551,156.83 348.777,155.516 351.195,155.516C353.613,155.516 355.839,156.83 357.006,158.948L358.156,161.033L360.494,161.482C362.869,161.938 364.807,163.649 365.554,165.948C366.301,168.248 365.739,170.771 364.086,172.536L362.458,174.273L362.754,176.636C363.054,179.035 362.025,181.407 360.07,182.829C358.114,184.25 355.54,184.494 353.351,183.468L351.195,182.456L349.039,183.468C346.85,184.494 344.276,184.25 342.32,182.829C340.364,181.407 339.336,179.035 339.636,176.636L339.932,174.273L338.304,172.536C336.651,170.771 336.089,168.248 336.836,165.948C337.583,163.649 339.521,161.938 341.896,161.482L344.234,161.033ZM350.596,161.821C350.716,161.603 350.946,161.468 351.195,161.468C351.444,161.468 351.674,161.603 351.794,161.821L353.854,165.559C353.991,165.807 354.181,166.022 354.41,166.189C354.639,166.355 354.902,166.469 355.18,166.522L359.372,167.327C359.617,167.374 359.817,167.551 359.894,167.787C359.971,168.024 359.913,168.284 359.742,168.466L356.824,171.581C356.63,171.788 356.485,172.035 356.397,172.304C356.31,172.573 356.282,172.859 356.318,173.14L356.848,177.375C356.879,177.622 356.773,177.867 356.571,178.013C356.369,178.16 356.104,178.185 355.879,178.079L352.014,176.266C351.758,176.146 351.478,176.084 351.195,176.084C350.912,176.084 350.632,176.146 350.375,176.266L346.511,178.079C346.286,178.185 346.021,178.16 345.819,178.013C345.617,177.867 345.511,177.622 345.542,177.375L346.072,173.14C346.108,172.859 346.08,172.573 345.993,172.304C345.905,172.035 345.76,171.788 345.566,171.581L342.648,168.466C342.477,168.284 342.419,168.024 342.496,167.787C342.573,167.551 342.773,167.374 343.018,167.327L347.21,166.522C347.488,166.469 347.751,166.355 347.98,166.189C348.209,166.022 348.399,165.807 348.535,165.559L350.596,161.821Z" style="fill:white;fill-opacity:0.09;"/>
        </g>
        <g transform="matrix(0.441935,0,0,0.441935,-83.1228,379.987)">
            <path d="M350.596,161.821C350.716,161.603 350.946,161.468 351.195,161.468C351.444,161.468 351.674,161.603 351.794,161.821L353.854,165.559C353.991,165.807 354.181,166.022 354.41,166.189C354.639,166.355 354.902,166.469 355.18,166.522L359.372,167.327C359.617,167.374 359.817,167.551 359.894,167.787C359.971,168.024 359.913,168.284 359.742,168.466L356.824,171.581C356.63,171.788 356.485,172.035 356.397,172.304C356.31,172.573 356.282,172.859 356.318,173.14L356.848,177.375C356.879,177.622 356.773,177.867 356.571,178.013C356.369,178.16 356.104,178.185 355.879,178.079L352.014,176.266C351.758,176.146 351.478,176.084 351.195,176.084C350.912,176.084 350.632,176.146 350.375,176.266L346.511,178.079C346.286,178.185 346.021,178.16 345.819,178.013C345.617,177.867 345.511,177.622 345.542,177.375L346.072,173.14C346.108,172.859 346.08,172.573 345.993,172.304C345.905,172.035 345.76,171.788 345.566,171.581L342.648,168.466C342.477,168.284 342.419,168.024 342.496,167.787C342.573,167.551 342.773,167.374 343.018,167.327L347.21,166.522C347.488,166.469 347.751,166.355 347.98,166.189C348.209,166.022 348.399,165.807 348.535,165.559L350.596,161.821Z" style="fill:white;"/>
            <path d="M343.4,159.885L344.259,158.328C345.652,155.801 348.309,154.231 351.195,154.231C354.081,154.231 356.738,155.801 358.131,158.328L358.99,159.885L360.736,160.221C363.57,160.765 365.884,162.807 366.776,165.551C367.667,168.296 366.996,171.308 365.023,173.414L363.807,174.712L364.028,176.477C364.386,179.34 363.159,182.171 360.824,183.868C358.49,185.564 355.418,185.856 352.805,184.63L351.195,183.875L349.585,184.63C346.972,185.856 343.9,185.564 341.566,183.868C339.231,182.171 338.004,179.34 338.362,176.477L338.583,174.712L337.367,173.414C335.394,171.308 334.722,168.296 335.614,165.551C336.506,162.807 338.82,160.765 341.653,160.221L343.4,159.885ZM350.596,161.821C350.716,161.603 350.946,161.468 351.195,161.468C351.444,161.468 351.674,161.603 351.794,161.821L353.854,165.559C353.991,165.807 354.181,166.022 354.41,166.189C354.639,166.355 354.902,166.469 355.18,166.522L359.372,167.327C359.617,167.374 359.817,167.551 359.894,167.787C359.971,168.024 359.913,168.284 359.742,168.466L356.824,171.581C356.63,171.788 356.485,172.035 356.397,172.304C356.31,172.573 356.282,172.859 356.318,173.14L356.848,177.375C356.879,177.622 356.773,177.867 356.571,178.013C356.369,178.16 356.104,178.185 355.879,178.079L352.014,176.266C351.758,176.146 351.478,176.084 351.195,176.084C350.912,176.084 350.632,176.146 350.375,176.266L346.511,178.079C346.286,178.185 346.021,178.16 345.819,178.013C345.617,177.867 345.511,177.622 345.542,177.375L346.072,173.14C346.108,172.859 346.08,172.573 345.993,172.304C345.905,172.035 345.76,171.788 345.566,171.581L342.648,168.466C342.477,168.284 342.419,168.024 342.496,167.787C342.573,167.551 342.773,167.374 343.018,167.327L347.21,166.522C347.488,166.469 347.751,166.355 347.98,166.189C348.209,166.022 348.399,165.807 348.535,165.559L350.596,161.821Z" style="fill:white;fill-opacity:0.09;"/>
        </g>
        <g transform="matrix(0.410826,0,0,0.410826,285.102,352.838)">
            <path d="M350.596,161.821C350.716,161.603 350.946,161.468 351.195,161.468C351.444,161.468 351.674,161.603 351.794,161.821L353.854,165.559C353.991,165.807 354.181,166.022 354.41,166.189C354.639,166.355 354.902,166.469 355.18,166.522L359.372,167.327C359.617,167.374 359.817,167.551 359.894,167.787C359.971,168.024 359.913,168.284 359.742,168.466L356.824,171.581C356.63,171.788 356.485,172.035 356.397,172.304C356.31,172.573 356.282,172.859 356.318,173.14L356.848,177.375C356.879,177.622 356.773,177.867 356.571,178.013C356.369,178.16 356.104,178.185 355.879,178.079L352.014,176.266C351.758,176.146 351.478,176.084 351.195,176.084C350.912,176.084 350.632,176.146 350.375,176.266L346.511,178.079C346.286,178.185 346.021,178.16 345.819,178.013C345.617,177.867 345.511,177.622 345.542,177.375L346.072,173.14C346.108,172.859 346.08,172.573 345.993,172.304C345.905,172.035 345.76,171.788 345.566,171.581L342.648,168.466C342.477,168.284 342.419,168.024 342.496,167.787C342.573,167.551 342.773,167.374 343.018,167.327L347.21,166.522C347.488,166.469 347.751,166.355 347.98,166.189C348.209,166.022 348.399,165.807 348.535,165.559L350.596,161.821Z" style="fill:white;"/>
            <path d="M343.044,159.396L343.779,158.063C345.269,155.361 348.11,153.683 351.195,153.683C354.28,153.683 357.121,155.361 358.611,158.063L359.345,159.396L360.84,159.682C363.87,160.264 366.344,162.448 367.297,165.382C368.25,168.316 367.532,171.537 365.423,173.788L364.383,174.899L364.572,176.409C364.955,179.47 363.643,182.497 361.147,184.311C358.65,186.124 355.366,186.437 352.573,185.126L351.195,184.48L349.817,185.126C347.024,186.437 343.739,186.124 341.243,184.311C338.747,182.497 337.435,179.47 337.818,176.409L338.007,174.899L336.967,173.788C334.858,171.537 334.14,168.316 335.093,165.382C336.046,162.448 338.52,160.264 341.55,159.682L343.044,159.396ZM350.596,161.821C350.716,161.603 350.946,161.468 351.195,161.468C351.444,161.468 351.674,161.603 351.794,161.821L353.854,165.559C353.991,165.807 354.181,166.022 354.41,166.189C354.639,166.355 354.902,166.469 355.18,166.522L359.372,167.327C359.617,167.374 359.817,167.551 359.894,167.787C359.971,168.024 359.913,168.284 359.742,168.466L356.824,171.581C356.63,171.788 356.485,172.035 356.397,172.304C356.31,172.573 356.282,172.859 356.318,173.14L356.848,177.375C356.879,177.622 356.773,177.867 356.571,178.013C356.369,178.16 356.104,178.185 355.879,178.079L352.014,176.266C351.758,176.146 351.478,176.084 351.195,176.084C350.912,176.084 350.632,176.146 350.375,176.266L346.511,178.079C346.286,178.185 346.021,178.16 345.819,178.013C345.617,177.867 345.511,177.622 345.542,177.375L346.072,173.14C346.108,172.859 346.08,172.573 345.993,172.304C345.905,172.035 345.76,171.788 345.566,171.581L342.648,168.466C342.477,168.284 342.419,168.024 342.496,167.787C342.573,167.551 342.773,167.374 343.018,167.327L347.21,166.522C347.488,166.469 347.751,166.355 347.98,166.189C348.209,166.022 348.399,165.807 348.535,165.559L350.596,161.821Z" style="fill:white;fill-opacity:0.09;"/>
        </g>
    </g>
</svg>
